HIERARCHY
ROOT Hips
{
	OFFSET 55.124401 -49.899517 86.004890
	CHANNELS 6 Xposition Yposition Zposition Xrotation Yrotation Zrotation
	JOINT spine
	{
		OFFSET 0.000000 -0.367607 6.392601
		CHANNELS 3 Xrotation Yrotation Zrotation
		JOINT spine1
		{
			OFFSET 0.000000 0.000000 9.176109
			CHANNELS 3 Xrotation Yrotation Zrotation
			JOINT spine2
			{
				OFFSET 0.000000 -0.000004 8.792381
				CHANNELS 3 Xrotation Yrotation Zrotation
				JOINT Neck
				{
					OFFSET 0.000000 -1.076244 22.573700
					CHANNELS 3 Xrotation Yrotation Zrotation
					JOINT Head
					{
						OFFSET 0.000000 0.000000 6.820114
						CHANNELS 3 Xrotation Yrotation Zrotation
						End Site
						{
							OFFSET 0.000000 5.444267 16.508514
						}
					}
				}
				JOINT RightShoulder
				{
					OFFSET -3.702209 0.515507 9.495087
					CHANNELS 3 Xrotation Yrotation Zrotation
					JOINT RightArm
					{
						OFFSET 0.000000 -0.000004 12.453690
						CHANNELS 3 Xrotation Yrotation Zrotation
						JOINT RightArmRoll
						{
							OFFSET 0.000000 0.000000 6.286865
							CHANNELS 3 Xrotation Yrotation Zrotation
							JOINT RightForeArm
							{
								OFFSET 0.000000 -0.000004 18.311401
								CHANNELS 3 Xrotation Yrotation Zrotation
								JOINT RightForeArmRoll
								{
									OFFSET 0.000000 0.000000 7.054825
									CHANNELS 3 Xrotation Yrotation Zrotation
									JOINT RightHand
									{
										OFFSET 0.000000 -0.000004 14.157501
										CHANNELS 3 Xrotation Yrotation Zrotation
										End Site
										{
											OFFSET 0.000000 0.000000 0.100006
										}
									}
								}
							}
						}
					}
				}
				JOINT LeftShoulder
				{
					OFFSET 3.702209 0.515507 9.495087
					CHANNELS 3 Xrotation Yrotation Zrotation
					JOINT LeftArm
					{
						OFFSET 0.000000 -0.000004 12.453690
						CHANNELS 3 Xrotation Yrotation Zrotation
						JOINT LeftArmRoll
						{
							OFFSET 0.000000 0.000000 6.286865
							CHANNELS 3 Xrotation Yrotation Zrotation
							JOINT LeftForeArm
							{
								OFFSET 0.000000 -0.000004 18.311401
								CHANNELS 3 Xrotation Yrotation Zrotation
								JOINT LeftForeArmRoll
								{
									OFFSET 0.000000 0.000000 7.054825
									CHANNELS 3 Xrotation Yrotation Zrotation
									JOINT LeftHand
									{
										OFFSET 0.000000 -0.000004 14.157501
										CHANNELS 3 Xrotation Yrotation Zrotation
										End Site
										{
											OFFSET 0.000000 0.000000 0.100006
										}
									}
								}
							}
						}
					}
				}
			}
		}
	}
	JOINT RightUpLeg
	{
		OFFSET -5.666149 0.871609 -1.039032
		CHANNELS 3 Xrotation Yrotation Zrotation
		JOINT RightUpLegRoll
		{
			OFFSET 0.000000 0.000000 16.600502
			CHANNELS 3 Xrotation Yrotation Zrotation
			JOINT RightLeg
			{
				OFFSET 0.000000 0.000004 -20.557198
				CHANNELS 3 Xrotation Yrotation Zrotation
				JOINT RightLegRoll
				{
					OFFSET 0.000000 -0.000004 20.624397
					CHANNELS 3 Xrotation Yrotation Zrotation
					JOINT RightFoot
					{
						OFFSET 0.000000 -0.000004 17.166405
						CHANNELS 3 Xrotation Yrotation Zrotation
						JOINT RightToeBase
						{
							OFFSET 0.000000 -0.000004 14.350197
							CHANNELS 3 Xrotation Yrotation Zrotation
							End Site
							{
								OFFSET 0.006081 0.801060 6.949707
							}
						}
					}
				}
			}
		}
	}
	JOINT LeftUpLeg
	{
		OFFSET 5.666149 0.871609 -1.039032
		CHANNELS 3 Xrotation Yrotation Zrotation
		JOINT LeftUpLegRoll
		{
			OFFSET 0.000000 0.000000 16.600601
			CHANNELS 3 Xrotation Yrotation Zrotation
			JOINT LeftLeg
			{
				OFFSET 0.000000 -0.000004 20.557098
				CHANNELS 3 Xrotation Yrotation Zrotation
				JOINT LeftLegRoll
				{
					OFFSET 0.000000 -0.000004 20.815086
					CHANNELS 3 Xrotation Yrotation Zrotation
					JOINT LeftFoot
					{
						OFFSET 0.000000 -0.000004 16.975708
						CHANNELS 3 Xrotation Yrotation Zrotation
						JOINT LeftToeBase
						{
							OFFSET 0.000000 0.000000 14.350204
							CHANNELS 3 Xrotation Yrotation Zrotation
							End Site
							{
								OFFSET -0.027260 0.801056 6.949707
							}
						}
					}
				}
			}
		}
	}
}
MOTION
Frames: 7
Frame Time: 0.041667
52.230499 -9.830212 56.630795 -5.264340 -0.270973 6.293663 -2.876825 0.576683 0.548223 -1.753884 1.136117 1.113798 -0.108801 1.149518 1.100043 39.232934 -18.533097 1.052741 -18.500797 14.241539 -0.372617 -43.494607 -78.526234 -48.432410 89.429832 -75.044641 66.712725 0.000001 -0.000002 -0.000004 60.109223 -11.651852 6.969001 0.000005 -0.000015 -2.999990 -5.000150 -7.998707 0.000077 52.693284 68.505233 -55.754141 66.980113 81.048008 -57.651482 0.000001 0.000003 0.000006 54.738283 14.587213 -4.456078 0.000020 -0.000001 2.999982 -4.999604 7.998730 0.000019 -73.072656 -167.352311 4.802422 -179.999991 0.000005 -0.901006 106.500189 -2.946503 -4.588676 -0.000004 0.000004 1.124650 67.070012 6.913552 2.196215 25.464036 -7.347592 0.010294 -74.459171 174.558940 -0.059819 -0.000020 -0.000003 -1.104700 -74.104766 -1.129838 0.785390 -0.000003 0.000001 -1.387840 63.861046 -7.137357 -1.883039 25.459349 7.346878 -0.003582 
52.230003 -9.840137 56.625298 -5.268386 -0.272834 6.291151 -2.876056 0.576558 0.547258 -1.752534 1.135078 1.112268 -0.107444 1.148529 1.098522 39.235096 -18.524296 1.054231 -18.493547 14.237818 -0.371434 -43.447004 -78.540311 -48.380115 89.392314 -75.045740 66.682194 0.000000 -0.000000 -0.000005 60.105651 -11.653982 6.968738 0.000004 -0.000013 -2.999992 -5.000150 -7.998707 0.000077 52.659652 68.523586 -55.713672 67.029277 81.037701 -57.693822 -0.000001 0.000004 0.000008 54.732649 14.590975 -4.457868 0.000018 -0.000001 2.999981 -4.999606 7.998732 0.000021 -73.068763 -167.353992 4.800907 -179.999991 0.000005 -0.901006 106.499690 -2.945245 -4.587873 -0.000004 0.000003 1.124650 67.070661 6.913619 2.198090 25.464041 -7.347592 0.010294 -74.453747 174.556194 -0.062151 -0.000021 -0.000004 -1.104700 -74.106084 -1.128703 0.786468 -0.000003 0.000001 -1.387839 63.860937 -7.137338 -1.883141 25.459346 7.346876 -0.003581 
52.233704 -9.840801 56.623997 -5.272096 -0.274637 6.288897 -2.875415 0.576442 0.546387 -1.751422 1.134030 1.110954 -0.106336 1.147538 1.097219 39.237948 -18.517560 1.056056 -18.486768 14.235975 -0.370181 -43.402861 -78.553971 -48.331580 89.353710 -75.047031 66.650338 0.000001 0.000000 -0.000009 60.102318 -11.656134 6.968590 0.000004 -0.000014 -2.999991 -5.000149 -7.998707 0.000080 52.628783 68.540832 -55.676413 67.076071 81.027955 -57.734448 -0.000001 0.000003 0.000006 54.726703 14.594779 -4.459607 0.000016 -0.000000 2.999982 -4.999607 7.998731 0.000021 -73.064958 -167.355740 4.800672 -179.999991 0.000005 -0.901006 106.498960 -2.944242 -4.587043 -0.000003 0.000003 1.124650 67.071419 6.913701 2.200059 25.464038 -7.347591 0.010295 -74.448802 174.553626 -0.063952 -0.000021 -0.000005 -1.104700 -74.107416 -1.127609 0.787512 -0.000003 0.000001 -1.387841 63.860643 -7.137413 -1.883077 25.459349 7.346876 -0.003582 
52.231705 -9.827198 56.632198 -5.275592 -0.276398 6.286828 -2.874854 0.576333 0.545581 -1.750492 1.132961 1.109773 -0.105404 1.146538 1.096048 39.241291 -18.512275 1.058081 -18.480305 14.235442 -0.368869 -43.361736 -78.567461 -48.286231 89.314327 -75.048507 66.617581 0.000000 -0.000000 -0.000005 60.099067 -11.658254 6.968365 0.000003 -0.000013 -2.999990 -5.000150 -7.998706 0.000077 52.599423 68.557375 -55.640968 67.120522 81.018556 -57.773203 0.000000 0.000004 0.000007 54.720638 14.598563 -4.461333 0.000019 0.000000 2.999979 -4.999603 7.998730 0.000021 -73.061577 -167.356915 4.799185 -179.999991 0.000005 -0.901006 106.498215 -2.943233 -4.587208 -0.000004 0.000003 1.124650 67.072191 6.913821 2.202032 25.464041 -7.347590 0.010296 -74.444035 174.551399 -0.066278 -0.000020 -0.000003 -1.104700 -74.108850 -1.126537 0.788508 -0.000003 0.000001 -1.387841 63.860438 -7.137415 -1.883092 25.459344 7.346875 -0.003583 
52.232605 -9.822262 56.638401 -5.278964 -0.278136 6.284851 -2.874342 0.576228 0.544814 -1.749661 1.131882 1.108685 -0.104573 1.145528 1.094971 39.244949 -18.507736 1.060205 -18.474004 14.235656 -0.367529 -43.322076 -78.580807 -48.242487 89.274548 -75.049975 66.584420 0.000001 -0.000001 -0.000007 60.095945 -11.660395 6.968144 0.000003 -0.000014 -2.999992 -5.000149 -7.998707 0.000076 52.571444 68.573440 -55.607097 67.163545 81.009349 -57.810789 0.000000 0.000003 0.000007 54.714473 14.602378 -4.463033 0.000020 -0.000001 2.999980 -4.999604 7.998730 0.000022 -73.058190 -167.358076 4.798298 -179.999991 0.000005 -0.901006 106.497375 -2.942209 -4.586368 -0.000004 0.000003 1.124650 67.072949 6.913944 2.204112 25.464035 -7.347592 0.010295 -74.439459 174.549255 -0.068300 -0.000021 -0.000004 -1.104700 -74.110278 -1.125481 0.789495 -0.000003 0.000001 -1.387840 63.860138 -7.137446 -1.883020 25.459344 7.346876 -0.003581 
52.228603 -9.840584 56.633194 -5.282283 -0.279866 6.282914 -2.873855 0.576124 0.544057 -1.748851 1.130803 1.107605 -0.103767 1.144518 1.093911 39.248675 -18.503433 1.062325 -18.467730 14.236057 -0.366183 -43.282588 -78.594106 -48.198924 89.234748 -75.051635 66.551130 0.000001 -0.000001 -0.000005 60.092817 -11.662540 6.967926 0.000005 -0.000014 -2.999992 -5.000151 -7.998707 0.000079 52.543399 68.589354 -55.573189 67.206391 81.000197 -57.848253 -0.000002 0.000002 0.000006 54.708190 14.606175 -4.464721 0.000020 -0.000000 2.999980 -4.999606 7.998734 0.000021 -73.055027 -167.358937 4.796518 -179.999991 0.000005 -0.901007 106.496487 -2.941474 -4.586512 -0.000004 0.000003 1.124649 67.073824 6.914074 2.206083 25.464035 -7.347591 0.010294 -74.434896 174.547110 -0.070321 -0.000021 -0.000004 -1.104700 -74.111705 -1.124427 0.790475 -0.000003 0.000001 -1.387839 63.859824 -7.137475 -1.883045 25.459349 7.346875 -0.003581 
52.228405 -9.841244 56.628998 -5.285684 -0.281609 6.280917 -2.873333 0.576017 0.543280 -1.748000 1.129733 1.106495 -0.102912 1.143508 1.092803 39.252196 -18.498768 1.064382 -18.461414 14.236085 -0.364839 -43.242436 -78.607486 -48.154630 89.194969 -75.053090 66.517956 0.000001 -0.000002 -0.000005 60.089668 -11.664630 6.967717 0.000005 -0.000012 -2.999988 -5.000148 -7.998705 0.000078 52.514773 68.605494 -55.538611 67.249435 80.990922 -57.885771 -0.000000 0.000005 0.000007 54.702022 14.609993 -4.466421 0.000019 -0.000003 2.999981 -4.999602 7.998731 0.000021 -73.051639 -167.360112 4.795434 -179.999991 0.000005 -0.901006 106.495743 -2.940466 -4.585666 -0.000004 0.000003 1.124650 67.074595 6.914194 2.208157 25.464040 -7.347591 0.010293 -74.430320 174.544951 -0.072429 -0.000020 -0.000004 -1.104699 -74.113037 -1.123373 0.791475 -0.000002 0.000001 -1.387840 63.859523 -7.137505 -1.883074 25.459347 7.346877 -0.003582 
